<?xml version="1.0" encoding="UTF-8" standalone="no"?>
<!-- Created with Inkscape (http://www.inkscape.org/) -->

<svg
   width="8.4661398in"
   height="10.824391in"
   viewBox="0 0 215.03995 274.93954"
   version="1.1"
   id="svg1"
   xml:space="preserve"
   xmlns="http://www.w3.org/2000/svg"
   xmlns:svg="http://www.w3.org/2000/svg"><defs
     id="defs1" /><g
     id="layer3"
     style="display:inline"
     transform="translate(-0.79852398,-3.4328319)"><path
       d="m 13.223963,8.8899372 6.06222,3.4999198 0.24999,-0.43302 -0.34991,-0.20202 c -0.0619,-0.0357 -0.10399,-0.0979 -0.11425,-0.16858 -0.0103,-0.0707 0.0125,-0.14225 0.0616,-0.19409 l 2.25018,-2.3716098 c 0.63651,-0.67086 1.64996,-0.81786 2.45085,-0.35548 l 3.33112,1.9231598 c 0.80088,0.46238 1.18033,1.41354 0.91763,2.30021 l -0.9287,3.13455 c -0.0203,0.0685 -0.0709,0.12396 -0.13726,0.15044 -0.0664,0.0265 -0.14123,0.0211 -0.20312,-0.0146 l -0.34991,-0.20202 -0.24998,0.433 17.31971,9.9992 0.24999,-0.43302 -0.34991,-0.20202 c -0.0619,-0.0357 -0.10399,-0.0979 -0.11425,-0.16858 -0.0103,-0.0707 0.0125,-0.14225 0.0616,-0.19409 l 2.25018,-2.37161 c 0.63651,-0.67086 1.64996,-0.81786 2.45085,-0.35548 l 3.33112,1.92316 c 0.80088,0.46238 1.18033,1.41354 0.91763,2.30021 l -0.9287,3.13455 c -0.0203,0.0685 -0.0709,0.12396 -0.13726,0.15044 -0.0664,0.0265 -0.14123,0.0211 -0.20312,-0.0146 l -0.34991,-0.20202 -0.249975,0.43299 6.062235,3.4999 -6.06222,3.49992 0.24999,0.43302 0.34991,-0.20202 c 0.0619,-0.0357 0.13674,-0.0411 0.20312,-0.0146 0.0664,0.0265 0.11696,0.0819 0.13726,0.15044 l 0.9287,3.13455 c 0.2627,0.88668 -0.11674,1.83784 -0.91763,2.30021 l -3.33112,1.92316 c -0.80088,0.46238 -1.81433,0.31538 -2.45085,-0.35548 l -2.25018,-2.37161 c -0.0492,-0.0518 -0.0719,-0.12337 -0.0616,-0.19409 0.0103,-0.0707 0.0524,-0.13285 0.11425,-0.16858 l 0.34991,-0.20202 -0.250005,-0.43305 -17.319715,9.99921 0.24999,0.43302 0.34991,-0.20202 c 0.0619,-0.0357 0.13674,-0.0411 0.20312,-0.0146 0.0664,0.0265 0.11696,0.0819 0.13726,0.15044 l 0.9287,3.13455 c 0.2627,0.88668 -0.11674,1.83784 -0.91763,2.30021 l -3.33112,1.92316 c -0.80088,0.46238 -1.81433,0.31538 -2.45085,-0.35548 l -2.25018,-2.37161 c -0.0492,-0.0518 -0.0719,-0.12337 -0.0616,-0.19409 0.0103,-0.0707 0.0524,-0.13285 0.11425,-0.16858 l 0.34991,-0.20202 -0.25,-0.43304 -6.06223,3.49989 v -7 h -0.5 v 0.40404 c 0,0.0715 -0.0328,0.13899 -0.0889,0.18324 -0.0561,0.0442 -0.12942,0.0603 -0.19892,0.0437 l -3.1789596,-0.76295 c -0.89924,-0.21582 -1.53325,-1.02 -1.53325,-1.94477 v -3.84641 c 0,-0.92478 0.63401,-1.72896 1.53325,-1.94477 l 3.1789596,-0.76295 c 0.0695,-0.0167 0.14279,-5.9e-4 0.19892,0.0437 0.0561,0.0443 0.0889,0.11177 0.0889,0.18324 v 0.40404 l 0.5,-6e-5 v -19.99783 h -0.5 v 0.40404 c 0,0.0715 -0.0328,0.13899 -0.0889,0.18324 -0.0561,0.0443 -0.12942,0.0603 -0.19892,0.0437 l -3.1789596,-0.76295 c -0.89924,-0.21582 -1.53325,-1.02 -1.53325,-1.94477 v -3.84641 c 0,-0.92478 0.63401,-1.72896 1.53325,-1.94477 l 3.1789596,-0.76295 c 0.0695,-0.0167 0.14279,-5.9e-4 0.19892,0.0437 0.0561,0.0443 0.0889,0.11177 0.0889,0.18324 v 0.40404 l 0.5,-5e-5 z"
       stroke="#0000ff"
       id="path35-4-3"
       style="font-weight:normal;font-family:sans-serif;fill:#000000;fill-opacity:0;stroke-width:1" /><path
       d="m 13.223963,80.347797 6.06222,3.49992 0.24999,-0.43302 -0.34991,-0.20202 c -0.0619,-0.0357 -0.10399,-0.0979 -0.11425,-0.16858 -0.0103,-0.0707 0.0125,-0.14225 0.0616,-0.19409 l 2.25018,-2.37161 c 0.63651,-0.67086 1.64996,-0.81786 2.45085,-0.35548 l 3.33112,1.92316 c 0.80088,0.46238 1.18033,1.41354 0.91763,2.30021 l -0.9287,3.13455 c -0.0203,0.0685 -0.0709,0.12396 -0.13726,0.15044 -0.0664,0.0265 -0.14123,0.0211 -0.20312,-0.0146 l -0.34991,-0.20202 -0.24998,0.433 17.31971,9.9992 0.24999,-0.43302 -0.34991,-0.20202 c -0.0619,-0.0357 -0.10399,-0.0979 -0.11425,-0.16858 -0.0103,-0.0707 0.0125,-0.14225 0.0616,-0.19409 l 2.25018,-2.37161 c 0.63651,-0.67086 1.64996,-0.81786 2.45085,-0.35548 l 3.33112,1.92316 c 0.80088,0.46238 1.18033,1.41354 0.91763,2.30021 l -0.9287,3.134553 c -0.0203,0.0685 -0.0709,0.12396 -0.13726,0.15044 -0.0664,0.0265 -0.14123,0.0211 -0.20312,-0.0146 l -0.34991,-0.20202 -0.249975,0.43299 6.062235,3.4999 -6.06222,3.49992 0.24999,0.43302 0.34991,-0.20202 c 0.0619,-0.0357 0.13674,-0.0411 0.20312,-0.0146 0.0664,0.0265 0.11696,0.0819 0.13726,0.15044 l 0.9287,3.13455 c 0.2627,0.88668 -0.11674,1.83784 -0.91763,2.30021 l -3.33112,1.92316 c -0.80088,0.46238 -1.81433,0.31538 -2.45085,-0.35548 l -2.25018,-2.37161 c -0.0492,-0.0518 -0.0719,-0.12337 -0.0616,-0.19409 0.0103,-0.0707 0.0524,-0.13285 0.11425,-0.16858 l 0.34991,-0.20202 -0.250005,-0.43305 -17.319715,9.99921 0.24999,0.43302 0.34991,-0.20202 c 0.0619,-0.0357 0.13674,-0.0411 0.20312,-0.0146 0.0664,0.0265 0.11696,0.0819 0.13726,0.15044 l 0.9287,3.13455 c 0.2627,0.88668 -0.11674,1.83784 -0.91763,2.30021 l -3.33112,1.92316 c -0.80088,0.46238 -1.81433,0.31538 -2.45085,-0.35548 l -2.25018,-2.37161 c -0.0492,-0.0518 -0.0719,-0.12337 -0.0616,-0.19409 0.0103,-0.0707 0.0524,-0.13285 0.11425,-0.16858 l 0.34991,-0.20202 -0.25,-0.43304 -6.06223,3.49989 v -7 h -0.5 v 0.40404 c 0,0.0715 -0.0328,0.13899 -0.0889,0.18324 -0.0561,0.0442 -0.12942,0.0603 -0.19892,0.0437 l -3.1789596,-0.76295 c -0.89924,-0.21582 -1.53325,-1.02 -1.53325,-1.94477 v -3.84641 c 0,-0.92478 0.63401,-1.72896 1.53325,-1.94477 l 3.1789596,-0.76295 c 0.0695,-0.0167 0.14279,-5.9e-4 0.19892,0.0437 0.0561,0.0443 0.0889,0.11177 0.0889,0.18324 v 0.40404 l 0.5,-6e-5 V 95.347797 h -0.5 v 0.40404 c 0,0.0715 -0.0328,0.13899 -0.0889,0.18324 -0.0561,0.0443 -0.12942,0.0603 -0.19892,0.0437 l -3.1789596,-0.76295 c -0.89924,-0.21582 -1.53325,-1.02 -1.53325,-1.94477 v -3.84641 c 0,-0.92478 0.63401,-1.72896 1.53325,-1.94477 l 3.1789596,-0.76295 c 0.0695,-0.0167 0.14279,-5.9e-4 0.19892,0.0437 0.0561,0.0443 0.0889,0.11177 0.0889,0.18324 v 0.40404 l 0.5,-5e-5 z"
       stroke="#0000ff"
       id="path110"
       style="font-weight:normal;font-family:sans-serif;fill:#000000;fill-opacity:0;stroke-width:1" /><path
       d="m 13.223963,151.80566 6.06222,3.49992 0.24999,-0.43302 -0.34991,-0.20202 c -0.0619,-0.0357 -0.10399,-0.0979 -0.11425,-0.16858 -0.0103,-0.0707 0.0125,-0.14225 0.0616,-0.19409 l 2.25018,-2.37161 c 0.63651,-0.67086 1.64996,-0.81786 2.45085,-0.35548 l 3.33112,1.92316 c 0.80088,0.46238 1.18033,1.41354 0.91763,2.30021 l -0.9287,3.13455 c -0.0203,0.0685 -0.0709,0.12396 -0.13726,0.15044 -0.0664,0.0265 -0.14123,0.0211 -0.20312,-0.0146 l -0.34991,-0.20202 -0.24998,0.433 17.31971,9.9992 0.24999,-0.43302 -0.34991,-0.20202 c -0.0619,-0.0357 -0.10399,-0.0979 -0.11425,-0.16858 -0.0103,-0.0707 0.0125,-0.14225 0.0616,-0.19409 l 2.25018,-2.37161 c 0.63651,-0.67086 1.64996,-0.81786 2.45085,-0.35548 l 3.33112,1.92316 c 0.80088,0.46238 1.18033,1.41354 0.91763,2.30021 l -0.9287,3.13455 c -0.0203,0.0685 -0.0709,0.12396 -0.13726,0.15044 -0.0664,0.0265 -0.14123,0.0211 -0.20312,-0.0146 l -0.34991,-0.20202 -0.249975,0.43299 6.062235,3.4999 -6.06222,3.49992 0.24999,0.43302 0.34991,-0.20202 c 0.0619,-0.0357 0.13674,-0.0411 0.20312,-0.0146 0.0664,0.0265 0.11696,0.0819 0.13726,0.15044 l 0.9287,3.13455 c 0.2627,0.88668 -0.11674,1.83784 -0.91763,2.30021 l -3.33112,1.92316 c -0.80088,0.46238 -1.81433,0.31538 -2.45085,-0.35548 l -2.25018,-2.37161 c -0.0492,-0.0518 -0.0719,-0.12337 -0.0616,-0.19409 0.0103,-0.0707 0.0524,-0.13285 0.11425,-0.16858 l 0.34991,-0.20202 -0.250005,-0.43305 -17.319715,9.99921 0.24999,0.43302 0.34991,-0.20202 c 0.0619,-0.0357 0.13674,-0.0411 0.20312,-0.0146 0.0664,0.0265 0.11696,0.0819 0.13726,0.15044 l 0.9287,3.13455 c 0.2627,0.88668 -0.11674,1.83784 -0.91763,2.30021 l -3.33112,1.92316 c -0.80088,0.46238 -1.81433,0.31538 -2.45085,-0.35548 l -2.25018,-2.37161 c -0.0492,-0.0518 -0.0719,-0.12337 -0.0616,-0.19409 0.0103,-0.0707 0.0524,-0.13285 0.11425,-0.16858 l 0.34991,-0.20202 -0.25,-0.43304 -6.06223,3.49989 v -7 h -0.5 v 0.40404 c 0,0.0715 -0.0328,0.13899 -0.0889,0.18324 -0.0561,0.0442 -0.12942,0.0603 -0.19892,0.0437 l -3.1789596,-0.76295 c -0.89924,-0.21582 -1.53325,-1.02 -1.53325,-1.94477 v -3.84641 c 0,-0.92478 0.63401,-1.72896 1.53325,-1.94477 l 3.1789596,-0.76295 c 0.0695,-0.0167 0.14279,-5.9e-4 0.19892,0.0437 0.0561,0.0443 0.0889,0.11177 0.0889,0.18324 v 0.40404 l 0.5,-6e-5 v -19.99783 h -0.5 v 0.40404 c 0,0.0715 -0.0328,0.13899 -0.0889,0.18324 -0.0561,0.0443 -0.12942,0.0603 -0.19892,0.0437 l -3.1789596,-0.76295 c -0.89924,-0.21582 -1.53325,-1.02 -1.53325,-1.94477 v -3.84641 c 0,-0.92478 0.63401,-1.72896 1.53325,-1.94477 l 3.1789596,-0.76295 c 0.0695,-0.0167 0.14279,-5.9e-4 0.19892,0.0437 0.0561,0.0443 0.0889,0.11177 0.0889,0.18324 v 0.40404 l 0.5,-5e-5 z"
       stroke="#0000ff"
       id="path112"
       style="font-weight:normal;font-family:sans-serif;fill:#000000;fill-opacity:0;stroke-width:1" /><path
       d="m 13.223963,223.26352 6.06222,3.49992 0.24999,-0.43302 -0.34991,-0.20202 c -0.0619,-0.0357 -0.10399,-0.0979 -0.11425,-0.16858 -0.0103,-0.0707 0.0125,-0.14225 0.0616,-0.19409 l 2.25018,-2.37161 c 0.63651,-0.67086 1.64996,-0.81786 2.45085,-0.35548 l 3.33112,1.92316 c 0.80088,0.46238 1.18033,1.41354 0.91763,2.30021 l -0.9287,3.13455 c -0.0203,0.0685 -0.0709,0.12396 -0.13726,0.15044 -0.0664,0.0265 -0.14123,0.0211 -0.20312,-0.0146 l -0.34991,-0.20202 -0.24998,0.433 17.31971,9.9992 0.24999,-0.43302 -0.34991,-0.20202 c -0.0619,-0.0357 -0.10399,-0.0979 -0.11425,-0.16858 -0.0103,-0.0707 0.0125,-0.14225 0.0616,-0.19409 l 2.25018,-2.37161 c 0.63651,-0.67086 1.64996,-0.81786 2.45085,-0.35548 l 3.33112,1.92316 c 0.80088,0.46238 1.18033,1.41354 0.91763,2.30021 l -0.9287,3.13455 c -0.0203,0.0685 -0.0709,0.12396 -0.13726,0.15044 -0.0664,0.0265 -0.14123,0.0211 -0.20312,-0.0146 l -0.34991,-0.20202 -0.249975,0.43299 6.062235,3.4999 -6.06222,3.49992 0.24999,0.43302 0.34991,-0.20202 c 0.0619,-0.0357 0.13674,-0.0411 0.20312,-0.0146 0.0664,0.0265 0.11696,0.0819 0.13726,0.15044 l 0.9287,3.13455 c 0.2627,0.88668 -0.11674,1.83784 -0.91763,2.30021 l -3.33112,1.92316 c -0.80088,0.46238 -1.81433,0.31538 -2.45085,-0.35548 L 43.381593,256.76 c -0.0492,-0.0518 -0.0719,-0.12337 -0.0616,-0.19409 0.0103,-0.0707 0.0524,-0.13285 0.11425,-0.16858 l 0.34991,-0.20202 -0.250005,-0.43305 -17.319715,9.99921 0.24999,0.43302 0.34991,-0.20202 c 0.0619,-0.0357 0.13674,-0.0411 0.20312,-0.0146 0.0664,0.0265 0.11696,0.0819 0.13726,0.15044 l 0.9287,3.13455 c 0.2627,0.88668 -0.11674,1.83784 -0.91763,2.30021 l -3.33112,1.92316 c -0.80088,0.46238 -1.81433,0.31538 -2.45085,-0.35548 l -2.25018,-2.37161 c -0.0492,-0.0518 -0.0719,-0.12337 -0.0616,-0.19409 0.0103,-0.0707 0.0524,-0.13285 0.11425,-0.16858 l 0.34991,-0.20202 -0.25,-0.43304 -6.06223,3.49989 v -7 h -0.5 v 0.40404 c 0,0.0715 -0.0328,0.13899 -0.0889,0.18324 -0.0561,0.0442 -0.12942,0.0603 -0.19892,0.0437 l -3.1789596,-0.76295 c -0.89924,-0.21582 -1.53325,-1.02 -1.53325,-1.94477 v -3.84641 c 0,-0.92478 0.63401,-1.72896 1.53325,-1.94477 l 3.1789596,-0.76295 c 0.0695,-0.0167 0.14279,-5.9e-4 0.19892,0.0437 0.0561,0.0443 0.0889,0.11177 0.0889,0.18324 v 0.40404 l 0.5,-6e-5 v -19.99783 h -0.5 v 0.40404 c 0,0.0715 -0.0328,0.13899 -0.0889,0.18324 -0.0561,0.0443 -0.12942,0.0603 -0.19892,0.0437 l -3.1789596,-0.76295 c -0.89924,-0.21582 -1.53325,-1.02 -1.53325,-1.94477 v -3.84641 c 0,-0.92478 0.63401,-1.72896 1.53325,-1.94477 l 3.1789596,-0.76295 c 0.0695,-0.0167 0.14279,-5.9e-4 0.19892,0.0437 0.0561,0.0443 0.0889,0.11177 0.0889,0.18324 v 0.40404 l 0.5,-5e-5 z"
       stroke="#0000ff"
       id="path114"
       style="font-weight:normal;font-family:sans-serif;fill:#000000;fill-opacity:0;stroke-width:1" /><path
       d="m 64.957651,237.98392 -6.06222,-3.49992 -0.24999,0.43302 0.34991,0.20202 c 0.0619,0.0357 0.10399,0.0979 0.11425,0.16858 0.0103,0.0707 -0.0125,0.14225 -0.0616,0.19409 l -2.25018,2.37161 c -0.63651,0.67086 -1.64996,0.81786 -2.45085,0.35548 l -3.33112,-1.92316 c -0.80088,-0.46238 -1.18033,-1.41354 -0.91763,-2.30021 l 0.9287,-3.13455 c 0.0203,-0.0685 0.0709,-0.12396 0.13726,-0.15044 0.0664,-0.0265 0.14123,-0.0211 0.20312,0.0146 l 0.34991,0.20202 0.24998,-0.433 -17.31971,-9.9992 -0.24999,0.43302 0.34991,0.20202 c 0.0619,0.0357 0.10399,0.0979 0.11425,0.16858 0.0103,0.0707 -0.0125,0.14225 -0.0616,0.19409 l -2.25018,2.37161 c -0.63651,0.67086 -1.64996,0.81786 -2.45085,0.35548 l -3.33112,-1.92316 c -0.80088,-0.46238 -1.18033,-1.41354 -0.91763,-2.30021 l 0.9287,-3.13455 c 0.0203,-0.0685 0.0709,-0.12396 0.13726,-0.15044 0.0664,-0.0265 0.14123,-0.0211 0.20312,0.0146 l 0.34991,0.20202 0.249975,-0.43299 -6.062235,-3.4999 6.06222,-3.49992 -0.24999,-0.43302 -0.34991,0.20202 c -0.0619,0.0357 -0.13674,0.0411 -0.20312,0.0146 -0.0664,-0.0265 -0.11696,-0.0819 -0.13726,-0.15044 l -0.9287,-3.13455 c -0.2627,-0.88668 0.11674,-1.83784 0.91763,-2.30021 l 3.33112,-1.92316 c 0.80088,-0.46238 1.81433,-0.31538 2.45085,0.35548 l 2.25018,2.37161 c 0.0492,0.0518 0.0719,0.12337 0.0616,0.19409 -0.0103,0.0707 -0.0524,0.13285 -0.11425,0.16858 l -0.34991,0.20202 0.250005,0.43305 17.319715,-9.99921 -0.24999,-0.43302 -0.34991,0.20202 c -0.0619,0.0357 -0.13674,0.0411 -0.20312,0.0146 -0.0664,-0.0265 -0.11696,-0.0819 -0.13726,-0.15044 l -0.9287,-3.13455 c -0.2627,-0.88668 0.11674,-1.83784 0.91763,-2.30021 l 3.33112,-1.92316 c 0.80088,-0.46238 1.81433,-0.31538 2.45085,0.35548 l 2.25018,2.37161 c 0.0492,0.0518 0.0719,0.12337 0.0616,0.19409 -0.0103,0.0707 -0.0524,0.13285 -0.11425,0.16858 l -0.34991,0.20202 0.25,0.43304 6.06223,-3.49989 v 7 h 0.5 v -0.40404 c 0,-0.0715 0.0328,-0.13899 0.0889,-0.18324 0.0561,-0.0442 0.12942,-0.0603 0.19892,-0.0437 l 3.17896,0.76295 c 0.89924,0.21582 1.53325,1.02 1.53325,1.94477 v 3.84641 c 0,0.92478 -0.63401,1.72896 -1.53325,1.94477 l -3.17896,0.76295 c -0.0695,0.0167 -0.14279,5.9e-4 -0.19892,-0.0437 -0.0561,-0.0443 -0.0889,-0.11177 -0.0889,-0.18324 v -0.40404 l -0.5,6e-5 v 19.99783 h 0.5 v -0.40404 c 0,-0.0715 0.0328,-0.13899 0.0889,-0.18324 0.0561,-0.0443 0.12942,-0.0603 0.19892,-0.0437 l 3.17896,0.76295 c 0.89924,0.21582 1.53325,1.02 1.53325,1.94477 v 3.84641 c 0,0.92478 -0.63401,1.72896 -1.53325,1.94477 l -3.17896,0.76295 c -0.0695,0.0167 -0.14279,5.9e-4 -0.19892,-0.0437 -0.0561,-0.0443 -0.0889,-0.11177 -0.0889,-0.18324 v -0.40404 l -0.5,5e-5 z"
       stroke="#0000ff"
       id="path118"
       style="font-weight:normal;font-family:sans-serif;fill:#000000;fill-opacity:0;stroke-width:1" /><path
       d="m 64.957653,166.52608 -6.06222,-3.49992 -0.24999,0.43302 0.34991,0.20202 c 0.0619,0.0357 0.10399,0.0979 0.11425,0.16858 0.0103,0.0707 -0.0125,0.14225 -0.0616,0.19409 l -2.25018,2.37161 c -0.63651,0.67086 -1.64996,0.81786 -2.45085,0.35548 l -3.33112,-1.92316 c -0.80088,-0.46238 -1.18033,-1.41354 -0.91763,-2.30021 l 0.9287,-3.13455 c 0.0203,-0.0685 0.0709,-0.12396 0.13726,-0.15044 0.0664,-0.0265 0.14123,-0.0211 0.20312,0.0146 l 0.34991,0.20202 0.24998,-0.433 -17.31971,-9.9992 -0.24999,0.43302 0.34991,0.20202 c 0.0619,0.0357 0.10399,0.0979 0.11425,0.16858 0.0103,0.0707 -0.0125,0.14225 -0.0616,0.19409 l -2.25018,2.37161 c -0.63651,0.67086 -1.64996,0.81786 -2.45085,0.35548 l -3.33112,-1.92316 c -0.80088,-0.46238 -1.18033,-1.41354 -0.91763,-2.30021 l 0.9287,-3.13455 c 0.0203,-0.0685 0.0709,-0.12396 0.13726,-0.15044 0.0664,-0.0265 0.14123,-0.0211 0.20312,0.0146 l 0.34991,0.20202 0.249975,-0.43299 -6.062235,-3.4999 6.06222,-3.49992 -0.24999,-0.43302 -0.34991,0.20202 c -0.0619,0.0357 -0.13674,0.0411 -0.20312,0.0146 -0.0664,-0.0265 -0.11696,-0.0819 -0.13726,-0.15044 l -0.9287,-3.13455 c -0.2627,-0.88668 0.11674,-1.83784 0.91763,-2.30021 l 3.33112,-1.92316 c 0.80088,-0.46238 1.81433,-0.31538 2.45085,0.35548 l 2.25018,2.37161 c 0.0492,0.0518 0.0719,0.12337 0.0616,0.19409 -0.0103,0.0707 -0.0524,0.13285 -0.11425,0.16858 l -0.34991,0.20202 0.250005,0.43305 17.319715,-9.99921 -0.24999,-0.43302 -0.34991,0.20202 c -0.0619,0.0357 -0.13674,0.0411 -0.20312,0.0146 -0.0664,-0.0265 -0.11696,-0.0819 -0.13726,-0.15044 l -0.9287,-3.13455 c -0.2627,-0.88668 0.11674,-1.83784 0.91763,-2.30021 l 3.33112,-1.92316 c 0.80088,-0.46238 1.81433,-0.31538 2.45085,0.35548 l 2.25018,2.37161 c 0.0492,0.0518 0.0719,0.12337 0.0616,0.19409 -0.0103,0.0707 -0.0524,0.13285 -0.11425,0.16858 l -0.34991,0.20202 0.25,0.43304 6.06223,-3.49989 v 7 h 0.5 v -0.40404 c 0,-0.0715 0.0328,-0.13899 0.0889,-0.18324 0.0561,-0.0442 0.12942,-0.0603 0.19892,-0.0437 l 3.17896,0.76295 c 0.89924,0.21582 1.53325,1.02 1.53325,1.94477 v 3.84641 c 0,0.92478 -0.63401,1.72896 -1.53325,1.94477 l -3.17896,0.76295 c -0.0695,0.0167 -0.14279,5.9e-4 -0.19892,-0.0437 -0.0561,-0.0443 -0.0889,-0.11177 -0.0889,-0.18324 v -0.40404 l -0.5,6e-5 v 19.99783 h 0.5 v -0.40404 c 0,-0.0715 0.0328,-0.13899 0.0889,-0.18324 0.0561,-0.0443 0.12942,-0.0603 0.19892,-0.0437 l 3.17896,0.76295 c 0.89924,0.21582 1.53325,1.02 1.53325,1.94477 v 3.84641 c 0,0.92478 -0.63401,1.72896 -1.53325,1.94477 l -3.17896,0.76295 c -0.0695,0.0167 -0.14279,5.9e-4 -0.19892,-0.0437 -0.0561,-0.0443 -0.0889,-0.11177 -0.0889,-0.18324 v -0.40404 l -0.5,5e-5 z"
       stroke="#0000ff"
       id="path120"
       style="font-weight:normal;font-family:sans-serif;fill:#000000;fill-opacity:0;stroke-width:1" /><path
       d="m 64.957653,95.068217 -6.06222,-3.49992 -0.24999,0.43302 0.34991,0.20202 c 0.0619,0.0357 0.10399,0.0979 0.11425,0.16858 0.0103,0.0707 -0.0125,0.14225 -0.0616,0.19409 l -2.25018,2.37161 c -0.63651,0.67086 -1.64996,0.81786 -2.45085,0.35548 l -3.33112,-1.92316 c -0.80088,-0.46238 -1.18033,-1.41354 -0.91763,-2.30021 l 0.9287,-3.13455 c 0.0203,-0.0685 0.0709,-0.12396 0.13726,-0.15044 0.0664,-0.0265 0.14123,-0.0211 0.20312,0.0146 l 0.34991,0.20202 0.24998,-0.433 -17.31971,-9.9992 -0.24999,0.43302 0.34991,0.20202 c 0.0619,0.0357 0.10399,0.0979 0.11425,0.16858 0.0103,0.0707 -0.0125,0.14225 -0.0616,0.19409 l -2.25018,2.37161 c -0.63651,0.67086 -1.64996,0.81786 -2.45085,0.35548 l -3.33112,-1.92316 c -0.80088,-0.46238 -1.18033,-1.41354 -0.91763,-2.30021 l 0.9287,-3.13455 c 0.0203,-0.0685 0.0709,-0.12396 0.13726,-0.15044 0.0664,-0.0265 0.14123,-0.0211 0.20312,0.0146 l 0.34991,0.20202 0.249975,-0.43299 -6.062235,-3.4999 6.06222,-3.49992 -0.24999,-0.43302 -0.34991,0.20202 c -0.0619,0.0357 -0.13674,0.0411 -0.20312,0.0146 -0.0664,-0.0265 -0.11696,-0.0819 -0.13726,-0.15044 l -0.9287,-3.13455 c -0.2627,-0.88668 0.11674,-1.83784 0.91763,-2.30021 l 3.33112,-1.92316 c 0.80088,-0.46238 1.81433,-0.31538 2.45085,0.35548 l 2.25018,2.37161 c 0.0492,0.0518 0.0719,0.12337 0.0616,0.19409 -0.0103,0.0707 -0.0524,0.13285 -0.11425,0.16858 l -0.34991,0.20202 0.250005,0.43305 17.319715,-9.99921 -0.24999,-0.43302 -0.34991,0.20202 c -0.0619,0.0357 -0.13674,0.0411 -0.20312,0.0146 -0.0664,-0.0265 -0.11696,-0.0819 -0.13726,-0.15044 l -0.9287,-3.13455 c -0.2627,-0.88668 0.11674,-1.83784 0.91763,-2.30021 l 3.33112,-1.92316 c 0.80088,-0.46238 1.81433,-0.31538 2.45085,0.35548 l 2.25018,2.37161 c 0.0492,0.0518 0.0719,0.12337 0.0616,0.19409 -0.0103,0.0707 -0.0524,0.13285 -0.11425,0.16858 l -0.34991,0.20202 0.25,0.43304 6.06223,-3.49989 v 7 h 0.5 v -0.40404 c 0,-0.0715 0.0328,-0.13899 0.0889,-0.18324 0.0561,-0.0442 0.12942,-0.0603 0.19892,-0.0437 l 3.17896,0.76295 c 0.89924,0.21582 1.53325,1.02 1.53325,1.94477 v 3.84641 c 0,0.92478 -0.63401,1.72896 -1.53325,1.94477 l -3.17896,0.76295 c -0.0695,0.0167 -0.14279,5.9e-4 -0.19892,-0.0437 -0.0561,-0.0443 -0.0889,-0.11177 -0.0889,-0.18324 v -0.40404 l -0.5,6e-5 v 19.99783 h 0.5 v -0.40404 c 0,-0.0715 0.0328,-0.13899 0.0889,-0.18324 0.0561,-0.0443 0.12942,-0.0603 0.19892,-0.0437 l 3.17896,0.76295 c 0.89924,0.21582 1.53325,1.02 1.53325,1.94477 v 3.84641 c 0,0.92478 -0.63401,1.72896 -1.53325,1.94477 l -3.17896,0.76295 c -0.0695,0.0167 -0.14279,5.9e-4 -0.19892,-0.0437 -0.0561,-0.0443 -0.0889,-0.11177 -0.0889,-0.18324 v -0.40404 l -0.5,5e-5 z"
       stroke="#0000ff"
       id="path122"
       style="font-weight:normal;font-family:sans-serif;fill:#000000;fill-opacity:0;stroke-width:1" /><path
       d="m 80.030237,8.8899372 6.06222,3.4999198 0.24999,-0.43302 -0.34991,-0.20202 c -0.0619,-0.0357 -0.10399,-0.0979 -0.11425,-0.16858 -0.0103,-0.0707 0.0125,-0.14225 0.0616,-0.19409 l 2.25018,-2.3716098 c 0.63651,-0.67086 1.64996,-0.81786 2.45085,-0.35548 l 3.33112,1.9231598 c 0.80088,0.46238 1.18033,1.41354 0.91763,2.30021 l -0.9287,3.13455 c -0.0203,0.0685 -0.0709,0.12396 -0.13726,0.15044 -0.0664,0.0265 -0.14123,0.0211 -0.20312,-0.0146 l -0.34991,-0.20202 -0.24998,0.433 17.319713,9.9992 0.24999,-0.43302 -0.34991,-0.20202 c -0.0619,-0.0357 -0.10399,-0.0979 -0.11425,-0.16858 -0.0103,-0.0707 0.0125,-0.14225 0.0616,-0.19409 l 2.25018,-2.37161 c 0.63651,-0.67086 1.64996,-0.81786 2.45085,-0.35548 l 3.33112,1.92316 c 0.80088,0.46238 1.18033,1.41354 0.91763,2.30021 l -0.9287,3.13455 c -0.0203,0.0685 -0.0709,0.12396 -0.13726,0.15044 -0.0664,0.0265 -0.14123,0.0211 -0.20312,-0.0146 l -0.34991,-0.20202 -0.24998,0.43299 6.06224,3.4999 -6.06222,3.49992 0.24999,0.43302 0.34991,-0.20202 c 0.0619,-0.0357 0.13674,-0.0411 0.20312,-0.0146 0.0664,0.0265 0.11696,0.0819 0.13726,0.15044 l 0.9287,3.13455 c 0.2627,0.88668 -0.11674,1.83784 -0.91763,2.30021 l -3.33112,1.92316 c -0.80088,0.46238 -1.81433,0.31538 -2.45085,-0.35548 l -2.25018,-2.37161 c -0.0492,-0.0518 -0.0719,-0.12337 -0.0616,-0.19409 0.0103,-0.0707 0.0524,-0.13285 0.11425,-0.16858 l 0.34991,-0.20202 -0.25001,-0.43305 -17.319713,9.99921 0.24999,0.43302 0.34991,-0.20202 c 0.0619,-0.0357 0.13674,-0.0411 0.20312,-0.0146 0.0664,0.0265 0.11696,0.0819 0.13726,0.15044 l 0.9287,3.13455 c 0.2627,0.88668 -0.11674,1.83784 -0.91763,2.30021 l -3.33112,1.92316 c -0.80088,0.46238 -1.81433,0.31538 -2.45085,-0.35548 l -2.25018,-2.37161 c -0.0492,-0.0518 -0.0719,-0.12337 -0.0616,-0.19409 0.0103,-0.0707 0.0524,-0.13285 0.11425,-0.16858 l 0.34991,-0.20202 -0.25,-0.43304 -6.06223,3.49989 v -7 h -0.5 v 0.40404 c 0,0.0715 -0.0328,0.13899 -0.0889,0.18324 -0.0561,0.0442 -0.12942,0.0603 -0.19892,0.0437 l -3.17896,-0.76295 c -0.89924,-0.21582 -1.53325,-1.02 -1.53325,-1.94477 v -3.84641 c 0,-0.92478 0.63401,-1.72896 1.53325,-1.94477 l 3.17896,-0.76295 c 0.0695,-0.0167 0.14279,-5.9e-4 0.19892,0.0437 0.0561,0.0443 0.0889,0.11177 0.0889,0.18324 v 0.40404 l 0.5,-6e-5 v -19.99783 h -0.5 v 0.40404 c 0,0.0715 -0.0328,0.13899 -0.0889,0.18324 -0.0561,0.0443 -0.12942,0.0603 -0.19892,0.0437 l -3.17896,-0.76295 c -0.89924,-0.21582 -1.53325,-1.02 -1.53325,-1.94477 v -3.84641 c 0,-0.92478 0.63401,-1.72896 1.53325,-1.94477 l 3.17896,-0.76295 c 0.0695,-0.0167 0.14279,-5.9e-4 0.19892,0.0437 0.0561,0.0443 0.0889,0.11177 0.0889,0.18324 v 0.40404 l 0.5,-5e-5 z"
       stroke="#0000ff"
       id="path124"
       style="font-weight:normal;font-family:sans-serif;fill:#000000;fill-opacity:0;stroke-width:1" /><path
       d="m 80.030237,80.347797 6.06222,3.49992 0.24999,-0.43302 -0.34991,-0.20202 c -0.0619,-0.0357 -0.10399,-0.0979 -0.11425,-0.16858 -0.0103,-0.0707 0.0125,-0.14225 0.0616,-0.19409 l 2.25018,-2.37161 c 0.63651,-0.67086 1.64996,-0.81786 2.45085,-0.35548 l 3.33112,1.92316 c 0.80088,0.46238 1.18033,1.41354 0.91763,2.30021 l -0.9287,3.13455 c -0.0203,0.0685 -0.0709,0.12396 -0.13726,0.15044 -0.0664,0.0265 -0.14123,0.0211 -0.20312,-0.0146 l -0.34991,-0.20202 -0.24998,0.433 17.319713,9.9992 0.24999,-0.43302 -0.34991,-0.20202 c -0.0619,-0.0357 -0.10399,-0.0979 -0.11425,-0.16858 -0.0103,-0.0707 0.0125,-0.14225 0.0616,-0.19409 l 2.25018,-2.37161 c 0.63651,-0.67086 1.64996,-0.81786 2.45085,-0.35548 l 3.33112,1.92316 c 0.80088,0.46238 1.18033,1.41354 0.91763,2.30021 l -0.9287,3.134553 c -0.0203,0.0685 -0.0709,0.12396 -0.13726,0.15044 -0.0664,0.0265 -0.14123,0.0211 -0.20312,-0.0146 l -0.34991,-0.20202 -0.24998,0.43299 6.06224,3.4999 -6.06222,3.49992 0.24999,0.43302 0.34991,-0.20202 c 0.0619,-0.0357 0.13674,-0.0411 0.20312,-0.0146 0.0664,0.0265 0.11696,0.0819 0.13726,0.15044 l 0.9287,3.13455 c 0.2627,0.88668 -0.11674,1.83784 -0.91763,2.30021 l -3.33112,1.92316 c -0.80088,0.46238 -1.81433,0.31538 -2.45085,-0.35548 l -2.25018,-2.37161 c -0.0492,-0.0518 -0.0719,-0.12337 -0.0616,-0.19409 0.0103,-0.0707 0.0524,-0.13285 0.11425,-0.16858 l 0.34991,-0.20202 -0.25001,-0.43305 -17.319713,9.99921 0.24999,0.43302 0.34991,-0.20202 c 0.0619,-0.0357 0.13674,-0.0411 0.20312,-0.0146 0.0664,0.0265 0.11696,0.0819 0.13726,0.15044 l 0.9287,3.13455 c 0.2627,0.88668 -0.11674,1.83784 -0.91763,2.30021 l -3.33112,1.92316 c -0.80088,0.46238 -1.81433,0.31538 -2.45085,-0.35548 l -2.25018,-2.37161 c -0.0492,-0.0518 -0.0719,-0.12337 -0.0616,-0.19409 0.0103,-0.0707 0.0524,-0.13285 0.11425,-0.16858 l 0.34991,-0.20202 -0.25,-0.43304 -6.06223,3.49989 v -7 h -0.5 v 0.40404 c 0,0.0715 -0.0328,0.13899 -0.0889,0.18324 -0.0561,0.0442 -0.12942,0.0603 -0.19892,0.0437 l -3.17896,-0.76295 c -0.89924,-0.21582 -1.53325,-1.02 -1.53325,-1.94477 v -3.84641 c 0,-0.92478 0.63401,-1.72896 1.53325,-1.94477 l 3.17896,-0.76295 c 0.0695,-0.0167 0.14279,-5.9e-4 0.19892,0.0437 0.0561,0.0443 0.0889,0.11177 0.0889,0.18324 v 0.40404 l 0.5,-6e-5 V 95.347797 h -0.5 v 0.40404 c 0,0.0715 -0.0328,0.13899 -0.0889,0.18324 -0.0561,0.0443 -0.12942,0.0603 -0.19892,0.0437 l -3.17896,-0.76295 c -0.89924,-0.21582 -1.53325,-1.02 -1.53325,-1.94477 v -3.84641 c 0,-0.92478 0.63401,-1.72896 1.53325,-1.94477 l 3.17896,-0.76295 c 0.0695,-0.0167 0.14279,-5.9e-4 0.19892,0.0437 0.0561,0.0443 0.0889,0.11177 0.0889,0.18324 v 0.40404 l 0.5,-5e-5 z"
       stroke="#0000ff"
       id="path126"
       style="font-weight:normal;font-family:sans-serif;fill:#000000;fill-opacity:0;stroke-width:1" /><path
       d="m 80.030237,151.80566 6.06222,3.49992 0.24999,-0.43302 -0.34991,-0.20202 c -0.0619,-0.0357 -0.10399,-0.0979 -0.11425,-0.16858 -0.0103,-0.0707 0.0125,-0.14225 0.0616,-0.19409 l 2.25018,-2.37161 c 0.63651,-0.67086 1.64996,-0.81786 2.45085,-0.35548 l 3.33112,1.92316 c 0.80088,0.46238 1.18033,1.41354 0.91763,2.30021 l -0.9287,3.13455 c -0.0203,0.0685 -0.0709,0.12396 -0.13726,0.15044 -0.0664,0.0265 -0.14123,0.0211 -0.20312,-0.0146 l -0.34991,-0.20202 -0.24998,0.433 17.319713,9.9992 0.24999,-0.43302 -0.34991,-0.20202 c -0.0619,-0.0357 -0.10399,-0.0979 -0.11425,-0.16858 -0.0103,-0.0707 0.0125,-0.14225 0.0616,-0.19409 l 2.25018,-2.37161 c 0.63651,-0.67086 1.64996,-0.81786 2.45085,-0.35548 l 3.33112,1.92316 c 0.80088,0.46238 1.18033,1.41354 0.91763,2.30021 l -0.9287,3.13455 c -0.0203,0.0685 -0.0709,0.12396 -0.13726,0.15044 -0.0664,0.0265 -0.14123,0.0211 -0.20312,-0.0146 l -0.34991,-0.20202 -0.24998,0.43299 6.06224,3.4999 -6.06222,3.49992 0.24999,0.43302 0.34991,-0.20202 c 0.0619,-0.0357 0.13674,-0.0411 0.20312,-0.0146 0.0664,0.0265 0.11696,0.0819 0.13726,0.15044 l 0.9287,3.13455 c 0.2627,0.88668 -0.11674,1.83784 -0.91763,2.30021 l -3.33112,1.92316 c -0.80088,0.46238 -1.81433,0.31538 -2.45085,-0.35548 l -2.25018,-2.37161 c -0.0492,-0.0518 -0.0719,-0.12337 -0.0616,-0.19409 0.0103,-0.0707 0.0524,-0.13285 0.11425,-0.16858 l 0.34991,-0.20202 -0.25001,-0.43305 -17.319713,9.99921 0.24999,0.43302 0.34991,-0.20202 c 0.0619,-0.0357 0.13674,-0.0411 0.20312,-0.0146 0.0664,0.0265 0.11696,0.0819 0.13726,0.15044 l 0.9287,3.13455 c 0.2627,0.88668 -0.11674,1.83784 -0.91763,2.30021 l -3.33112,1.92316 c -0.80088,0.46238 -1.81433,0.31538 -2.45085,-0.35548 l -2.25018,-2.37161 c -0.0492,-0.0518 -0.0719,-0.12337 -0.0616,-0.19409 0.0103,-0.0707 0.0524,-0.13285 0.11425,-0.16858 l 0.34991,-0.20202 -0.25,-0.43304 -6.06223,3.49989 v -7 h -0.5 v 0.40404 c 0,0.0715 -0.0328,0.13899 -0.0889,0.18324 -0.0561,0.0442 -0.12942,0.0603 -0.19892,0.0437 l -3.17896,-0.76295 c -0.89924,-0.21582 -1.53325,-1.02 -1.53325,-1.94477 v -3.84641 c 0,-0.92478 0.63401,-1.72896 1.53325,-1.94477 l 3.17896,-0.76295 c 0.0695,-0.0167 0.14279,-5.9e-4 0.19892,0.0437 0.0561,0.0443 0.0889,0.11177 0.0889,0.18324 v 0.40404 l 0.5,-6e-5 v -19.99783 h -0.5 v 0.40404 c 0,0.0715 -0.0328,0.13899 -0.0889,0.18324 -0.0561,0.0443 -0.12942,0.0603 -0.19892,0.0437 l -3.17896,-0.76295 c -0.89924,-0.21582 -1.53325,-1.02 -1.53325,-1.94477 v -3.84641 c 0,-0.92478 0.63401,-1.72896 1.53325,-1.94477 l 3.17896,-0.76295 c 0.0695,-0.0167 0.14279,-5.9e-4 0.19892,0.0437 0.0561,0.0443 0.0889,0.11177 0.0889,0.18324 v 0.40404 l 0.5,-5e-5 z"
       stroke="#0000ff"
       id="path128"
       style="font-weight:normal;font-family:sans-serif;fill:#000000;fill-opacity:0;stroke-width:1" /><path
       d="m 80.030237,223.26352 6.06222,3.49992 0.24999,-0.43302 -0.34991,-0.20202 c -0.0619,-0.0357 -0.10399,-0.0979 -0.11425,-0.16858 -0.0103,-0.0707 0.0125,-0.14225 0.0616,-0.19409 l 2.25018,-2.37161 c 0.63651,-0.67086 1.64996,-0.81786 2.45085,-0.35548 l 3.33112,1.92316 c 0.80088,0.46238 1.18033,1.41354 0.91763,2.30021 l -0.9287,3.13455 c -0.0203,0.0685 -0.0709,0.12396 -0.13726,0.15044 -0.0664,0.0265 -0.14123,0.0211 -0.20312,-0.0146 l -0.34991,-0.20202 -0.24998,0.433 17.319713,9.9992 0.24999,-0.43302 -0.34991,-0.20202 c -0.0619,-0.0357 -0.10399,-0.0979 -0.11425,-0.16858 -0.0103,-0.0707 0.0125,-0.14225 0.0616,-0.19409 l 2.25018,-2.37161 c 0.63651,-0.67086 1.64996,-0.81786 2.45085,-0.35548 l 3.33112,1.92316 c 0.80088,0.46238 1.18033,1.41354 0.91763,2.30021 l -0.9287,3.13455 c -0.0203,0.0685 -0.0709,0.12396 -0.13726,0.15044 -0.0664,0.0265 -0.14123,0.0211 -0.20312,-0.0146 l -0.34991,-0.20202 -0.24998,0.43299 6.06224,3.4999 -6.06222,3.49992 0.24999,0.43302 0.34991,-0.20202 c 0.0619,-0.0357 0.13674,-0.0411 0.20312,-0.0146 0.0664,0.0265 0.11696,0.0819 0.13726,0.15044 l 0.9287,3.13455 c 0.2627,0.88668 -0.11674,1.83784 -0.91763,2.30021 l -3.33112,1.92316 c -0.80088,0.46238 -1.81433,0.31538 -2.45085,-0.35548 L 110.18787,256.76 c -0.0492,-0.0518 -0.0719,-0.12337 -0.0616,-0.19409 0.0103,-0.0707 0.0524,-0.13285 0.11425,-0.16858 l 0.34991,-0.20202 -0.25001,-0.43305 -17.319713,9.99921 0.24999,0.43302 0.34991,-0.20202 c 0.0619,-0.0357 0.13674,-0.0411 0.20312,-0.0146 0.0664,0.0265 0.11696,0.0819 0.13726,0.15044 l 0.9287,3.13455 c 0.2627,0.88668 -0.11674,1.83784 -0.91763,2.30021 l -3.33112,1.92316 c -0.80088,0.46238 -1.81433,0.31538 -2.45085,-0.35548 l -2.25018,-2.37161 c -0.0492,-0.0518 -0.0719,-0.12337 -0.0616,-0.19409 0.0103,-0.0707 0.0524,-0.13285 0.11425,-0.16858 l 0.34991,-0.20202 -0.25,-0.43304 -6.06223,3.49989 v -7 h -0.5 v 0.40404 c 0,0.0715 -0.0328,0.13899 -0.0889,0.18324 -0.0561,0.0442 -0.12942,0.0603 -0.19892,0.0437 l -3.17896,-0.76295 c -0.89924,-0.21582 -1.53325,-1.02 -1.53325,-1.94477 v -3.84641 c 0,-0.92478 0.63401,-1.72896 1.53325,-1.94477 l 3.17896,-0.76295 c 0.0695,-0.0167 0.14279,-5.9e-4 0.19892,0.0437 0.0561,0.0443 0.0889,0.11177 0.0889,0.18324 v 0.40404 l 0.5,-6e-5 v -19.99783 h -0.5 v 0.40404 c 0,0.0715 -0.0328,0.13899 -0.0889,0.18324 -0.0561,0.0443 -0.12942,0.0603 -0.19892,0.0437 l -3.17896,-0.76295 c -0.89924,-0.21582 -1.53325,-1.02 -1.53325,-1.94477 v -3.84641 c 0,-0.92478 0.63401,-1.72896 1.53325,-1.94477 l 3.17896,-0.76295 c 0.0695,-0.0167 0.14279,-5.9e-4 0.19892,0.0437 0.0561,0.0443 0.0889,0.11177 0.0889,0.18324 v 0.40404 l 0.5,-5e-5 z"
       stroke="#0000ff"
       id="path130"
       style="font-weight:normal;font-family:sans-serif;fill:#000000;fill-opacity:0;stroke-width:1" /><path
       d="m 131.76392,237.98392 -6.06221,-3.49992 -0.25,0.43302 0.34992,0.20202 c 0.0619,0.0357 0.10398,0.0979 0.11425,0.16858 0.0103,0.0707 -0.0125,0.14225 -0.0616,0.19409 l -2.25018,2.37161 c -0.63651,0.67086 -1.64997,0.81786 -2.45086,0.35548 l -3.33111,-1.92316 c -0.80089,-0.46238 -1.18033,-1.41354 -0.91764,-2.30021 l 0.92871,-3.13455 c 0.0203,-0.0685 0.0709,-0.12396 0.13726,-0.15044 0.0664,-0.0265 0.14122,-0.0211 0.20312,0.0146 l 0.3499,0.20202 0.24999,-0.433 -17.31971,-9.9992 -0.24999,0.43302 0.3499,0.20202 c 0.0619,0.0357 0.104,0.0979 0.11425,0.16858 0.0103,0.0707 -0.0125,0.14225 -0.0616,0.19409 l -2.250175,2.37161 c -0.63651,0.67086 -1.64996,0.81786 -2.45085,0.35548 l -3.33112,-1.92316 c -0.80088,-0.46238 -1.18033,-1.41354 -0.91763,-2.30021 l 0.9287,-3.13455 c 0.0203,-0.0685 0.0709,-0.12396 0.13726,-0.15044 0.0664,-0.0265 0.14123,-0.0211 0.20312,0.0146 l 0.34991,0.20202 0.249975,-0.43299 -6.062235,-3.4999 6.06222,-3.49992 -0.24999,-0.43302 -0.34991,0.20202 c -0.0619,0.0357 -0.13674,0.0411 -0.20312,0.0146 -0.0664,-0.0265 -0.11696,-0.0819 -0.13726,-0.15044 l -0.9287,-3.13455 c -0.2627,-0.88668 0.11674,-1.83784 0.91763,-2.30021 l 3.33112,-1.92316 c 0.80088,-0.46238 1.81433,-0.31538 2.45085,0.35548 l 2.250185,2.37161 c 0.0492,0.0518 0.0719,0.12337 0.0616,0.19409 -0.0103,0.0707 -0.0524,0.13285 -0.11425,0.16858 l -0.34992,0.20202 0.25001,0.43305 17.31972,-9.99921 -0.24999,-0.43302 -0.34992,0.20202 c -0.0619,0.0357 -0.13673,0.0411 -0.20311,0.0146 -0.0664,-0.0265 -0.11696,-0.0819 -0.13727,-0.15044 l -0.92869,-3.13455 c -0.26271,-0.88668 0.11673,-1.83784 0.91762,-2.30021 l 3.33112,-1.92316 c 0.80089,-0.46238 1.81434,-0.31538 2.45085,0.35548 l 2.25018,2.37161 c 0.0492,0.0518 0.0719,0.12337 0.0616,0.19409 -0.0103,0.0707 -0.0524,0.13285 -0.11425,0.16858 l -0.3499,0.20202 0.25,0.43304 6.06222,-3.49989 v 7 h 0.5 v -0.40404 c 0,-0.0715 0.0328,-0.13899 0.0889,-0.18324 0.0561,-0.0442 0.12942,-0.0603 0.19892,-0.0437 l 3.17896,0.76295 c 0.89924,0.21582 1.53325,1.02 1.53325,1.94477 v 3.84641 c 0,0.92478 -0.63401,1.72896 -1.53325,1.94477 l -3.17896,0.76295 c -0.0695,0.0167 -0.14279,5.9e-4 -0.19892,-0.0437 -0.0561,-0.0443 -0.0889,-0.11177 -0.0889,-0.18324 v -0.40404 l -0.5,6e-5 v 19.99783 h 0.5 v -0.40404 c 0,-0.0715 0.0328,-0.13899 0.0889,-0.18324 0.0561,-0.0443 0.12942,-0.0603 0.19892,-0.0437 l 3.17896,0.76295 c 0.89924,0.21582 1.53325,1.02 1.53325,1.94477 v 3.84641 c 0,0.92478 -0.63401,1.72896 -1.53325,1.94477 l -3.17896,0.76295 c -0.0695,0.0167 -0.14279,5.9e-4 -0.19892,-0.0437 -0.0561,-0.0443 -0.0889,-0.11177 -0.0889,-0.18324 v -0.40404 l -0.5,5e-5 z"
       stroke="#0000ff"
       id="path132"
       style="font-weight:normal;font-family:sans-serif;fill:#000000;fill-opacity:0;stroke-width:1" /><path
       d="m 131.76393,166.52608 -6.06222,-3.49992 -0.24999,0.43302 0.34991,0.20202 c 0.0619,0.0357 0.10399,0.0979 0.11425,0.16858 0.0103,0.0707 -0.0125,0.14225 -0.0616,0.19409 l -2.25018,2.37161 c -0.63651,0.67086 -1.64996,0.81786 -2.45085,0.35548 l -3.33112,-1.92316 c -0.80088,-0.46238 -1.18033,-1.41354 -0.91763,-2.30021 l 0.9287,-3.13455 c 0.0203,-0.0685 0.0709,-0.12396 0.13726,-0.15044 0.0664,-0.0265 0.14123,-0.0211 0.20312,0.0146 l 0.34991,0.20202 0.24998,-0.433 -17.31971,-9.9992 -0.24999,0.43302 0.34991,0.20202 c 0.0619,0.0357 0.10399,0.0979 0.11425,0.16858 0.0103,0.0707 -0.0125,0.14225 -0.0616,0.19409 l -2.250183,2.37161 c -0.63651,0.67086 -1.64996,0.81786 -2.45085,0.35548 l -3.33112,-1.92316 c -0.80088,-0.46238 -1.18033,-1.41354 -0.91763,-2.30021 l 0.9287,-3.13455 c 0.0203,-0.0685 0.0709,-0.12396 0.13726,-0.15044 0.0664,-0.0265 0.14123,-0.0211 0.20312,0.0146 l 0.34991,0.20202 0.249975,-0.43299 -6.062235,-3.4999 6.06222,-3.49992 -0.24999,-0.43302 -0.34991,0.20202 c -0.0619,0.0357 -0.13674,0.0411 -0.20312,0.0146 -0.0664,-0.0265 -0.11696,-0.0819 -0.13726,-0.15044 l -0.9287,-3.13455 c -0.2627,-0.88668 0.11674,-1.83784 0.91763,-2.30021 l 3.33112,-1.92316 c 0.80088,-0.46238 1.81433,-0.31538 2.45085,0.35548 l 2.250183,2.37161 c 0.0492,0.0518 0.0719,0.12337 0.0616,0.19409 -0.0103,0.0707 -0.0524,0.13285 -0.11425,0.16858 l -0.34991,0.20202 0.25,0.43305 17.31972,-9.99921 -0.24999,-0.43302 -0.34991,0.20202 c -0.0619,0.0357 -0.13674,0.0411 -0.20312,0.0146 -0.0664,-0.0265 -0.11696,-0.0819 -0.13726,-0.15044 l -0.9287,-3.13455 c -0.2627,-0.88668 0.11674,-1.83784 0.91763,-2.30021 l 3.33112,-1.92316 c 0.80088,-0.46238 1.81433,-0.31538 2.45085,0.35548 l 2.25018,2.37161 c 0.0492,0.0518 0.0719,0.12337 0.0616,0.19409 -0.0103,0.0707 -0.0524,0.13285 -0.11425,0.16858 l -0.34991,0.20202 0.25,0.43304 6.06223,-3.49989 v 7 h 0.5 v -0.40404 c 0,-0.0715 0.0328,-0.13899 0.0889,-0.18324 0.0561,-0.0442 0.12942,-0.0603 0.19892,-0.0437 l 3.17896,0.76295 c 0.89924,0.21582 1.53325,1.02 1.53325,1.94477 v 3.84641 c 0,0.92478 -0.63401,1.72896 -1.53325,1.94477 l -3.17896,0.76295 c -0.0695,0.0167 -0.14279,5.9e-4 -0.19892,-0.0437 -0.0561,-0.0443 -0.0889,-0.11177 -0.0889,-0.18324 v -0.40404 l -0.5,6e-5 v 19.99783 h 0.5 v -0.40404 c 0,-0.0715 0.0328,-0.13899 0.0889,-0.18324 0.0561,-0.0443 0.12942,-0.0603 0.19892,-0.0437 l 3.17896,0.76295 c 0.89924,0.21582 1.53325,1.02 1.53325,1.94477 v 3.84641 c 0,0.92478 -0.63401,1.72896 -1.53325,1.94477 l -3.17896,0.76295 c -0.0695,0.0167 -0.14279,5.9e-4 -0.19892,-0.0437 -0.0561,-0.0443 -0.0889,-0.11177 -0.0889,-0.18324 v -0.40404 l -0.5,5e-5 z"
       stroke="#0000ff"
       id="path134"
       style="font-weight:normal;font-family:sans-serif;fill:#000000;fill-opacity:0;stroke-width:1" /><path
       d="m 131.76393,95.068217 -6.06222,-3.49992 -0.24999,0.43302 0.34991,0.20202 c 0.0619,0.0357 0.10399,0.0979 0.11425,0.16858 0.0103,0.0707 -0.0125,0.14225 -0.0616,0.19409 l -2.25018,2.37161 c -0.63651,0.67086 -1.64996,0.81786 -2.45085,0.35548 l -3.33112,-1.92316 c -0.80088,-0.46238 -1.18033,-1.41354 -0.91763,-2.30021 l 0.9287,-3.13455 c 0.0203,-0.0685 0.0709,-0.12396 0.13726,-0.15044 0.0664,-0.0265 0.14123,-0.0211 0.20312,0.0146 l 0.34991,0.20202 0.24998,-0.433 -17.31971,-9.9992 -0.24999,0.43302 0.34991,0.20202 c 0.0619,0.0357 0.10399,0.0979 0.11425,0.16858 0.0103,0.0707 -0.0125,0.14225 -0.0616,0.19409 l -2.250183,2.37161 c -0.63651,0.67086 -1.64996,0.81786 -2.45085,0.35548 l -3.33112,-1.92316 c -0.80088,-0.46238 -1.18033,-1.41354 -0.91763,-2.30021 l 0.9287,-3.13455 c 0.0203,-0.0685 0.0709,-0.12396 0.13726,-0.15044 0.0664,-0.0265 0.14123,-0.0211 0.20312,0.0146 l 0.34991,0.20202 0.249975,-0.43299 -6.062235,-3.4999 6.06222,-3.49992 -0.24999,-0.43302 -0.34991,0.20202 c -0.0619,0.0357 -0.13674,0.0411 -0.20312,0.0146 -0.0664,-0.0265 -0.11696,-0.0819 -0.13726,-0.15044 l -0.9287,-3.13455 c -0.2627,-0.88668 0.11674,-1.83784 0.91763,-2.30021 l 3.33112,-1.92316 c 0.80088,-0.46238 1.81433,-0.31538 2.45085,0.35548 l 2.250183,2.37161 c 0.0492,0.0518 0.0719,0.12337 0.0616,0.19409 -0.0103,0.0707 -0.0524,0.13285 -0.11425,0.16858 l -0.34991,0.20202 0.25,0.43305 17.31972,-9.99921 -0.24999,-0.43302 -0.34991,0.20202 c -0.0619,0.0357 -0.13674,0.0411 -0.20312,0.0146 -0.0664,-0.0265 -0.11696,-0.0819 -0.13726,-0.15044 l -0.9287,-3.13455 c -0.2627,-0.88668 0.11674,-1.83784 0.91763,-2.30021 l 3.33112,-1.92316 c 0.80088,-0.46238 1.81433,-0.31538 2.45085,0.35548 l 2.25018,2.37161 c 0.0492,0.0518 0.0719,0.12337 0.0616,0.19409 -0.0103,0.0707 -0.0524,0.13285 -0.11425,0.16858 l -0.34991,0.20202 0.25,0.43304 6.06223,-3.49989 v 7 h 0.5 v -0.40404 c 0,-0.0715 0.0328,-0.13899 0.0889,-0.18324 0.0561,-0.0442 0.12942,-0.0603 0.19892,-0.0437 l 3.17896,0.76295 c 0.89924,0.21582 1.53325,1.02 1.53325,1.94477 v 3.84641 c 0,0.92478 -0.63401,1.72896 -1.53325,1.94477 l -3.17896,0.76295 c -0.0695,0.0167 -0.14279,5.9e-4 -0.19892,-0.0437 -0.0561,-0.0443 -0.0889,-0.11177 -0.0889,-0.18324 v -0.40404 l -0.5,6e-5 v 19.99783 h 0.5 v -0.40404 c 0,-0.0715 0.0328,-0.13899 0.0889,-0.18324 0.0561,-0.0443 0.12942,-0.0603 0.19892,-0.0437 l 3.17896,0.76295 c 0.89924,0.21582 1.53325,1.02 1.53325,1.94477 v 3.84641 c 0,0.92478 -0.63401,1.72896 -1.53325,1.94477 l -3.17896,0.76295 c -0.0695,0.0167 -0.14279,5.9e-4 -0.19892,-0.0437 -0.0561,-0.0443 -0.0889,-0.11177 -0.0889,-0.18324 v -0.40404 l -0.5,5e-5 z"
       stroke="#0000ff"
       id="path136"
       style="font-weight:normal;font-family:sans-serif;fill:#000000;fill-opacity:0;stroke-width:1" /><path
       d="m 146.28203,8.8899372 6.06222,3.4999198 0.24999,-0.43302 -0.34991,-0.20202 c -0.0619,-0.0357 -0.10399,-0.0979 -0.11425,-0.16858 -0.0103,-0.0707 0.0125,-0.14225 0.0616,-0.19409 l 2.25018,-2.3716098 c 0.63651,-0.67086 1.64996,-0.81786 2.45085,-0.35548 l 3.33112,1.9231598 c 0.80088,0.46238 1.18033,1.41354 0.91763,2.30021 l -0.9287,3.13455 c -0.0203,0.0685 -0.0709,0.12396 -0.13726,0.15044 -0.0664,0.0265 -0.14123,0.0211 -0.20312,-0.0146 l -0.34991,-0.20202 -0.24998,0.433 17.31971,9.9992 0.24999,-0.43302 -0.34991,-0.20202 c -0.0619,-0.0357 -0.10399,-0.0979 -0.11425,-0.16858 -0.0103,-0.0707 0.0125,-0.14225 0.0616,-0.19409 l 2.25018,-2.37161 c 0.63651,-0.67086 1.64996,-0.81786 2.45085,-0.35548 l 3.33112,1.92316 c 0.80088,0.46238 1.18033,1.41354 0.91763,2.30021 l -0.9287,3.13455 c -0.0203,0.0685 -0.0709,0.12396 -0.13726,0.15044 -0.0664,0.0265 -0.14123,0.0211 -0.20312,-0.0146 l -0.34991,-0.20202 -0.24997,0.43299 6.06223,3.4999 -6.06222,3.49992 0.24999,0.43302 0.34991,-0.20202 c 0.0619,-0.0357 0.13674,-0.0411 0.20312,-0.0146 0.0664,0.0265 0.11696,0.0819 0.13726,0.15044 l 0.9287,3.13455 c 0.2627,0.88668 -0.11674,1.83784 -0.91763,2.30021 l -3.33112,1.92316 c -0.80088,0.46238 -1.81433,0.31538 -2.45085,-0.35548 l -2.25018,-2.37161 c -0.0492,-0.0518 -0.0719,-0.12337 -0.0616,-0.19409 0.0103,-0.0707 0.0524,-0.13285 0.11425,-0.16858 l 0.34991,-0.20202 -0.25,-0.43305 -17.31972,9.99921 0.24999,0.43302 0.34991,-0.20202 c 0.0619,-0.0357 0.13674,-0.0411 0.20312,-0.0146 0.0664,0.0265 0.11696,0.0819 0.13726,0.15044 l 0.9287,3.13455 c 0.2627,0.88668 -0.11674,1.83784 -0.91763,2.30021 l -3.33112,1.92316 c -0.80088,0.46238 -1.81433,0.31538 -2.45085,-0.35548 l -2.25018,-2.37161 c -0.0492,-0.0518 -0.0719,-0.12337 -0.0616,-0.19409 0.0103,-0.0707 0.0524,-0.13285 0.11425,-0.16858 l 0.34991,-0.20202 -0.25,-0.43304 -6.06223,3.49989 v -7 h -0.5 v 0.40404 c 0,0.0715 -0.0328,0.13899 -0.0889,0.18324 -0.0561,0.0442 -0.12942,0.0603 -0.19892,0.0437 l -3.17896,-0.76295 c -0.89924,-0.21582 -1.53325,-1.02 -1.53325,-1.94477 v -3.84641 c 0,-0.92478 0.63401,-1.72896 1.53325,-1.94477 l 3.17896,-0.76295 c 0.0695,-0.0167 0.14279,-5.9e-4 0.19892,0.0437 0.0561,0.0443 0.0889,0.11177 0.0889,0.18324 v 0.40404 l 0.5,-6e-5 v -19.99783 h -0.5 v 0.40404 c 0,0.0715 -0.0328,0.13899 -0.0889,0.18324 -0.0561,0.0443 -0.12942,0.0603 -0.19892,0.0437 l -3.17896,-0.76295 c -0.89924,-0.21582 -1.53325,-1.02 -1.53325,-1.94477 v -3.84641 c 0,-0.92478 0.63401,-1.72896 1.53325,-1.94477 l 3.17896,-0.76295 c 0.0695,-0.0167 0.14279,-5.9e-4 0.19892,0.0437 0.0561,0.0443 0.0889,0.11177 0.0889,0.18324 v 0.40404 l 0.5,-5e-5 z"
       stroke="#0000ff"
       id="path138"
       style="font-weight:normal;font-family:sans-serif;fill:#000000;fill-opacity:0;stroke-width:1" /><path
       d="m 146.28203,80.347797 6.06222,3.49992 0.24999,-0.43302 -0.34991,-0.20202 c -0.0619,-0.0357 -0.10399,-0.0979 -0.11425,-0.16858 -0.0103,-0.0707 0.0125,-0.14225 0.0616,-0.19409 l 2.25018,-2.37161 c 0.63651,-0.67086 1.64996,-0.81786 2.45085,-0.35548 l 3.33112,1.92316 c 0.80088,0.46238 1.18033,1.41354 0.91763,2.30021 l -0.9287,3.13455 c -0.0203,0.0685 -0.0709,0.12396 -0.13726,0.15044 -0.0664,0.0265 -0.14123,0.0211 -0.20312,-0.0146 l -0.34991,-0.20202 -0.24998,0.433 17.31971,9.9992 0.24999,-0.43302 -0.34991,-0.20202 c -0.0619,-0.0357 -0.10399,-0.0979 -0.11425,-0.16858 -0.0103,-0.0707 0.0125,-0.14225 0.0616,-0.19409 l 2.25018,-2.37161 c 0.63651,-0.67086 1.64996,-0.81786 2.45085,-0.35548 l 3.33112,1.92316 c 0.80088,0.46238 1.18033,1.41354 0.91763,2.30021 l -0.9287,3.134553 c -0.0203,0.0685 -0.0709,0.12396 -0.13726,0.15044 -0.0664,0.0265 -0.14123,0.0211 -0.20312,-0.0146 l -0.34991,-0.20202 -0.24997,0.43299 6.06223,3.4999 -6.06222,3.49992 0.24999,0.43302 0.34991,-0.20202 c 0.0619,-0.0357 0.13674,-0.0411 0.20312,-0.0146 0.0664,0.0265 0.11696,0.0819 0.13726,0.15044 l 0.9287,3.13455 c 0.2627,0.88668 -0.11674,1.83784 -0.91763,2.30021 l -3.33112,1.92316 c -0.80088,0.46238 -1.81433,0.31538 -2.45085,-0.35548 l -2.25018,-2.37161 c -0.0492,-0.0518 -0.0719,-0.12337 -0.0616,-0.19409 0.0103,-0.0707 0.0524,-0.13285 0.11425,-0.16858 l 0.34991,-0.20202 -0.25,-0.43305 -17.31972,9.99921 0.24999,0.43302 0.34991,-0.20202 c 0.0619,-0.0357 0.13674,-0.0411 0.20312,-0.0146 0.0664,0.0265 0.11696,0.0819 0.13726,0.15044 l 0.9287,3.13455 c 0.2627,0.88668 -0.11674,1.83784 -0.91763,2.30021 l -3.33112,1.92316 c -0.80088,0.46238 -1.81433,0.31538 -2.45085,-0.35548 l -2.25018,-2.37161 c -0.0492,-0.0518 -0.0719,-0.12337 -0.0616,-0.19409 0.0103,-0.0707 0.0524,-0.13285 0.11425,-0.16858 l 0.34991,-0.20202 -0.25,-0.43304 -6.06223,3.49989 v -7 h -0.5 v 0.40404 c 0,0.0715 -0.0328,0.13899 -0.0889,0.18324 -0.0561,0.0442 -0.12942,0.0603 -0.19892,0.0437 l -3.17896,-0.76295 c -0.89924,-0.21582 -1.53325,-1.02 -1.53325,-1.94477 v -3.84641 c 0,-0.92478 0.63401,-1.72896 1.53325,-1.94477 l 3.17896,-0.76295 c 0.0695,-0.0167 0.14279,-5.9e-4 0.19892,0.0437 0.0561,0.0443 0.0889,0.11177 0.0889,0.18324 v 0.40404 l 0.5,-6e-5 V 95.347797 h -0.5 v 0.40404 c 0,0.0715 -0.0328,0.13899 -0.0889,0.18324 -0.0561,0.0443 -0.12942,0.0603 -0.19892,0.0437 l -3.17896,-0.76295 c -0.89924,-0.21582 -1.53325,-1.02 -1.53325,-1.94477 v -3.84641 c 0,-0.92478 0.63401,-1.72896 1.53325,-1.94477 l 3.17896,-0.76295 c 0.0695,-0.0167 0.14279,-5.9e-4 0.19892,0.0437 0.0561,0.0443 0.0889,0.11177 0.0889,0.18324 v 0.40404 l 0.5,-5e-5 z"
       stroke="#0000ff"
       id="path140"
       style="font-weight:normal;font-family:sans-serif;fill:#000000;fill-opacity:0;stroke-width:1" /><path
       d="m 146.28203,151.80566 6.06222,3.49992 0.24999,-0.43302 -0.34991,-0.20202 c -0.0619,-0.0357 -0.10399,-0.0979 -0.11425,-0.16858 -0.0103,-0.0707 0.0125,-0.14225 0.0616,-0.19409 l 2.25018,-2.37161 c 0.63651,-0.67086 1.64996,-0.81786 2.45085,-0.35548 l 3.33112,1.92316 c 0.80088,0.46238 1.18033,1.41354 0.91763,2.30021 l -0.9287,3.13455 c -0.0203,0.0685 -0.0709,0.12396 -0.13726,0.15044 -0.0664,0.0265 -0.14123,0.0211 -0.20312,-0.0146 l -0.34991,-0.20202 -0.24998,0.433 17.31971,9.9992 0.24999,-0.43302 -0.34991,-0.20202 c -0.0619,-0.0357 -0.10399,-0.0979 -0.11425,-0.16858 -0.0103,-0.0707 0.0125,-0.14225 0.0616,-0.19409 l 2.25018,-2.37161 c 0.63651,-0.67086 1.64996,-0.81786 2.45085,-0.35548 l 3.33112,1.92316 c 0.80088,0.46238 1.18033,1.41354 0.91763,2.30021 l -0.9287,3.13455 c -0.0203,0.0685 -0.0709,0.12396 -0.13726,0.15044 -0.0664,0.0265 -0.14123,0.0211 -0.20312,-0.0146 l -0.34991,-0.20202 -0.24997,0.43299 6.06223,3.4999 -6.06222,3.49992 0.24999,0.43302 0.34991,-0.20202 c 0.0619,-0.0357 0.13674,-0.0411 0.20312,-0.0146 0.0664,0.0265 0.11696,0.0819 0.13726,0.15044 l 0.9287,3.13455 c 0.2627,0.88668 -0.11674,1.83784 -0.91763,2.30021 l -3.33112,1.92316 c -0.80088,0.46238 -1.81433,0.31538 -2.45085,-0.35548 l -2.25018,-2.37161 c -0.0492,-0.0518 -0.0719,-0.12337 -0.0616,-0.19409 0.0103,-0.0707 0.0524,-0.13285 0.11425,-0.16858 l 0.34991,-0.20202 -0.25,-0.43305 -17.31972,9.99921 0.24999,0.43302 0.34991,-0.20202 c 0.0619,-0.0357 0.13674,-0.0411 0.20312,-0.0146 0.0664,0.0265 0.11696,0.0819 0.13726,0.15044 l 0.9287,3.13455 c 0.2627,0.88668 -0.11674,1.83784 -0.91763,2.30021 l -3.33112,1.92316 c -0.80088,0.46238 -1.81433,0.31538 -2.45085,-0.35548 l -2.25018,-2.37161 c -0.0492,-0.0518 -0.0719,-0.12337 -0.0616,-0.19409 0.0103,-0.0707 0.0524,-0.13285 0.11425,-0.16858 l 0.34991,-0.20202 -0.25,-0.43304 -6.06223,3.49989 v -7 h -0.5 v 0.40404 c 0,0.0715 -0.0328,0.13899 -0.0889,0.18324 -0.0561,0.0442 -0.12942,0.0603 -0.19892,0.0437 l -3.17896,-0.76295 c -0.89924,-0.21582 -1.53325,-1.02 -1.53325,-1.94477 v -3.84641 c 0,-0.92478 0.63401,-1.72896 1.53325,-1.94477 l 3.17896,-0.76295 c 0.0695,-0.0167 0.14279,-5.9e-4 0.19892,0.0437 0.0561,0.0443 0.0889,0.11177 0.0889,0.18324 v 0.40404 l 0.5,-6e-5 v -19.99783 h -0.5 v 0.40404 c 0,0.0715 -0.0328,0.13899 -0.0889,0.18324 -0.0561,0.0443 -0.12942,0.0603 -0.19892,0.0437 l -3.17896,-0.76295 c -0.89924,-0.21582 -1.53325,-1.02 -1.53325,-1.94477 v -3.84641 c 0,-0.92478 0.63401,-1.72896 1.53325,-1.94477 l 3.17896,-0.76295 c 0.0695,-0.0167 0.14279,-5.9e-4 0.19892,0.0437 0.0561,0.0443 0.0889,0.11177 0.0889,0.18324 v 0.40404 l 0.5,-5e-5 z"
       stroke="#0000ff"
       id="path142"
       style="font-weight:normal;font-family:sans-serif;fill:#000000;fill-opacity:0;stroke-width:1" /><path
       d="m 146.28203,223.26352 6.06222,3.49992 0.24999,-0.43302 -0.34991,-0.20202 c -0.0619,-0.0357 -0.10399,-0.0979 -0.11425,-0.16858 -0.0103,-0.0707 0.0125,-0.14225 0.0616,-0.19409 l 2.25018,-2.37161 c 0.63651,-0.67086 1.64996,-0.81786 2.45085,-0.35548 l 3.33112,1.92316 c 0.80088,0.46238 1.18033,1.41354 0.91763,2.30021 l -0.9287,3.13455 c -0.0203,0.0685 -0.0709,0.12396 -0.13726,0.15044 -0.0664,0.0265 -0.14123,0.0211 -0.20312,-0.0146 l -0.34991,-0.20202 -0.24998,0.433 17.31971,9.9992 0.24999,-0.43302 -0.34991,-0.20202 c -0.0619,-0.0357 -0.10399,-0.0979 -0.11425,-0.16858 -0.0103,-0.0707 0.0125,-0.14225 0.0616,-0.19409 l 2.25018,-2.37161 c 0.63651,-0.67086 1.64996,-0.81786 2.45085,-0.35548 l 3.33112,1.92316 c 0.80088,0.46238 1.18033,1.41354 0.91763,2.30021 l -0.9287,3.13455 c -0.0203,0.0685 -0.0709,0.12396 -0.13726,0.15044 -0.0664,0.0265 -0.14123,0.0211 -0.20312,-0.0146 l -0.34991,-0.20202 -0.24997,0.43299 6.06223,3.4999 -6.06222,3.49992 0.24999,0.43302 0.34991,-0.20202 c 0.0619,-0.0357 0.13674,-0.0411 0.20312,-0.0146 0.0664,0.0265 0.11696,0.0819 0.13726,0.15044 l 0.9287,3.13455 c 0.2627,0.88668 -0.11674,1.83784 -0.91763,2.30021 l -3.33112,1.92316 c -0.80088,0.46238 -1.81433,0.31538 -2.45085,-0.35548 L 176.43966,256.76 c -0.0492,-0.0518 -0.0719,-0.12337 -0.0616,-0.19409 0.0103,-0.0707 0.0524,-0.13285 0.11425,-0.16858 l 0.34991,-0.20202 -0.25,-0.43305 -17.31972,9.99921 0.24999,0.43302 0.34991,-0.20202 c 0.0619,-0.0357 0.13674,-0.0411 0.20312,-0.0146 0.0664,0.0265 0.11696,0.0819 0.13726,0.15044 l 0.9287,3.13455 c 0.2627,0.88668 -0.11674,1.83784 -0.91763,2.30021 l -3.33112,1.92316 c -0.80088,0.46238 -1.81433,0.31538 -2.45085,-0.35548 l -2.25018,-2.37161 c -0.0492,-0.0518 -0.0719,-0.12337 -0.0616,-0.19409 0.0103,-0.0707 0.0524,-0.13285 0.11425,-0.16858 l 0.34991,-0.20202 -0.25,-0.43304 -6.06223,3.49989 v -7 h -0.5 v 0.40404 c 0,0.0715 -0.0328,0.13899 -0.0889,0.18324 -0.0561,0.0442 -0.12942,0.0603 -0.19892,0.0437 l -3.17896,-0.76295 c -0.89924,-0.21582 -1.53325,-1.02 -1.53325,-1.94477 v -3.84641 c 0,-0.92478 0.63401,-1.72896 1.53325,-1.94477 l 3.17896,-0.76295 c 0.0695,-0.0167 0.14279,-5.9e-4 0.19892,0.0437 0.0561,0.0443 0.0889,0.11177 0.0889,0.18324 v 0.40404 l 0.5,-6e-5 v -19.99783 h -0.5 v 0.40404 c 0,0.0715 -0.0328,0.13899 -0.0889,0.18324 -0.0561,0.0443 -0.12942,0.0603 -0.19892,0.0437 l -3.17896,-0.76295 c -0.89924,-0.21582 -1.53325,-1.02 -1.53325,-1.94477 v -3.84641 c 0,-0.92478 0.63401,-1.72896 1.53325,-1.94477 l 3.17896,-0.76295 c 0.0695,-0.0167 0.14279,-5.9e-4 0.19892,0.0437 0.0561,0.0443 0.0889,0.11177 0.0889,0.18324 v 0.40404 l 0.5,-5e-5 z"
       stroke="#0000ff"
       id="path144"
       style="font-weight:normal;font-family:sans-serif;fill:#000000;fill-opacity:0;stroke-width:1" /><path
       d="m 198.01572,237.98392 -6.06222,-3.49992 -0.24999,0.43302 0.34991,0.20202 c 0.0619,0.0357 0.10399,0.0979 0.11425,0.16858 0.0103,0.0707 -0.0125,0.14225 -0.0616,0.19409 l -2.25018,2.37161 c -0.63651,0.67086 -1.64996,0.81786 -2.45085,0.35548 l -3.33112,-1.92316 c -0.80088,-0.46238 -1.18033,-1.41354 -0.91763,-2.30021 l 0.9287,-3.13455 c 0.0203,-0.0685 0.0709,-0.12396 0.13726,-0.15044 0.0664,-0.0265 0.14123,-0.0211 0.20312,0.0146 l 0.34991,0.20202 0.24998,-0.433 -17.31971,-9.9992 -0.24999,0.43302 0.34991,0.20202 c 0.0619,0.0357 0.10399,0.0979 0.11425,0.16858 0.0103,0.0707 -0.0125,0.14225 -0.0616,0.19409 l -2.25018,2.37161 c -0.63651,0.67086 -1.64996,0.81786 -2.45085,0.35548 l -3.33112,-1.92316 c -0.80088,-0.46238 -1.18033,-1.41354 -0.91763,-2.30021 l 0.9287,-3.13455 c 0.0203,-0.0685 0.0709,-0.12396 0.13726,-0.15044 0.0664,-0.0265 0.14123,-0.0211 0.20312,0.0146 l 0.34991,0.20202 0.24997,-0.43299 -6.06223,-3.4999 6.06222,-3.49992 -0.24999,-0.43302 -0.34991,0.20202 c -0.0619,0.0357 -0.13674,0.0411 -0.20312,0.0146 -0.0664,-0.0265 -0.11696,-0.0819 -0.13726,-0.15044 l -0.9287,-3.13455 c -0.2627,-0.88668 0.11674,-1.83784 0.91763,-2.30021 l 3.33112,-1.92316 c 0.80088,-0.46238 1.81433,-0.31538 2.45085,0.35548 l 2.25018,2.37161 c 0.0492,0.0518 0.0719,0.12337 0.0616,0.19409 -0.0103,0.0707 -0.0524,0.13285 -0.11425,0.16858 l -0.34991,0.20202 0.25,0.43305 17.31972,-9.99921 -0.24999,-0.43302 -0.34991,0.20202 c -0.0619,0.0357 -0.13674,0.0411 -0.20312,0.0146 -0.0664,-0.0265 -0.11696,-0.0819 -0.13726,-0.15044 l -0.9287,-3.13455 c -0.2627,-0.88668 0.11674,-1.83784 0.91763,-2.30021 l 3.33112,-1.92316 c 0.80088,-0.46238 1.81433,-0.31538 2.45085,0.35548 l 2.25018,2.37161 c 0.0492,0.0518 0.0719,0.12337 0.0616,0.19409 -0.0103,0.0707 -0.0524,0.13285 -0.11425,0.16858 l -0.34991,0.20202 0.25,0.43304 6.06223,-3.49989 v 7 h 0.5 v -0.40404 c 0,-0.0715 0.0328,-0.13899 0.0889,-0.18324 0.0561,-0.0442 0.12942,-0.0603 0.19892,-0.0437 l 3.17896,0.76295 c 0.89924,0.21582 1.53325,1.02 1.53325,1.94477 v 3.84641 c 0,0.92478 -0.63401,1.72896 -1.53325,1.94477 l -3.17896,0.76295 c -0.0695,0.0167 -0.14279,5.9e-4 -0.19892,-0.0437 -0.0561,-0.0443 -0.0889,-0.11177 -0.0889,-0.18324 v -0.40404 l -0.5,6e-5 v 19.99783 h 0.5 v -0.40404 c 0,-0.0715 0.0328,-0.13899 0.0889,-0.18324 0.0561,-0.0443 0.12942,-0.0603 0.19892,-0.0437 l 3.17896,0.76295 c 0.89924,0.21582 1.53325,1.02 1.53325,1.94477 v 3.84641 c 0,0.92478 -0.63401,1.72896 -1.53325,1.94477 l -3.17896,0.76295 c -0.0695,0.0167 -0.14279,5.9e-4 -0.19892,-0.0437 -0.0561,-0.0443 -0.0889,-0.11177 -0.0889,-0.18324 v -0.40404 l -0.5,5e-5 z"
       stroke="#0000ff"
       id="path146"
       style="font-weight:normal;font-family:sans-serif;fill:#000000;fill-opacity:0;stroke-width:1" /><path
       d="m 198.01572,166.52608 -6.06222,-3.49992 -0.24999,0.43302 0.34991,0.20202 c 0.0619,0.0357 0.10399,0.0979 0.11425,0.16858 0.0103,0.0707 -0.0125,0.14225 -0.0616,0.19409 l -2.25018,2.37161 c -0.63651,0.67086 -1.64996,0.81786 -2.45085,0.35548 l -3.33112,-1.92316 c -0.80088,-0.46238 -1.18033,-1.41354 -0.91763,-2.30021 l 0.9287,-3.13455 c 0.0203,-0.0685 0.0709,-0.12396 0.13726,-0.15044 0.0664,-0.0265 0.14123,-0.0211 0.20312,0.0146 l 0.34991,0.20202 0.24998,-0.433 -17.31971,-9.9992 -0.24999,0.43302 0.34991,0.20202 c 0.0619,0.0357 0.10399,0.0979 0.11425,0.16858 0.0103,0.0707 -0.0125,0.14225 -0.0616,0.19409 l -2.25018,2.37161 c -0.63651,0.67086 -1.64996,0.81786 -2.45085,0.35548 l -3.33112,-1.92316 c -0.80088,-0.46238 -1.18033,-1.41354 -0.91763,-2.30021 l 0.9287,-3.13455 c 0.0203,-0.0685 0.0709,-0.12396 0.13726,-0.15044 0.0664,-0.0265 0.14123,-0.0211 0.20312,0.0146 l 0.34991,0.20202 0.24997,-0.43299 -6.06223,-3.4999 6.06222,-3.49992 -0.24999,-0.43302 -0.34991,0.20202 c -0.0619,0.0357 -0.13674,0.0411 -0.20312,0.0146 -0.0664,-0.0265 -0.11696,-0.0819 -0.13726,-0.15044 l -0.9287,-3.13455 c -0.2627,-0.88668 0.11674,-1.83784 0.91763,-2.30021 l 3.33112,-1.92316 c 0.80088,-0.46238 1.81433,-0.31538 2.45085,0.35548 l 2.25018,2.37161 c 0.0492,0.0518 0.0719,0.12337 0.0616,0.19409 -0.0103,0.0707 -0.0524,0.13285 -0.11425,0.16858 l -0.34991,0.20202 0.25,0.43305 17.31972,-9.99921 -0.24999,-0.43302 -0.34991,0.20202 c -0.0619,0.0357 -0.13674,0.0411 -0.20312,0.0146 -0.0664,-0.0265 -0.11696,-0.0819 -0.13726,-0.15044 l -0.9287,-3.13455 c -0.2627,-0.88668 0.11674,-1.83784 0.91763,-2.30021 l 3.33112,-1.92316 c 0.80088,-0.46238 1.81433,-0.31538 2.45085,0.35548 l 2.25018,2.37161 c 0.0492,0.0518 0.0719,0.12337 0.0616,0.19409 -0.0103,0.0707 -0.0524,0.13285 -0.11425,0.16858 l -0.34991,0.20202 0.25,0.43304 6.06223,-3.49989 v 7 h 0.5 v -0.40404 c 0,-0.0715 0.0328,-0.13899 0.0889,-0.18324 0.0561,-0.0442 0.12942,-0.0603 0.19892,-0.0437 l 3.17896,0.76295 c 0.89924,0.21582 1.53325,1.02 1.53325,1.94477 v 3.84641 c 0,0.92478 -0.63401,1.72896 -1.53325,1.94477 l -3.17896,0.76295 c -0.0695,0.0167 -0.14279,5.9e-4 -0.19892,-0.0437 -0.0561,-0.0443 -0.0889,-0.11177 -0.0889,-0.18324 v -0.40404 l -0.5,6e-5 v 19.99783 h 0.5 v -0.40404 c 0,-0.0715 0.0328,-0.13899 0.0889,-0.18324 0.0561,-0.0443 0.12942,-0.0603 0.19892,-0.0437 l 3.17896,0.76295 c 0.89924,0.21582 1.53325,1.02 1.53325,1.94477 v 3.84641 c 0,0.92478 -0.63401,1.72896 -1.53325,1.94477 l -3.17896,0.76295 c -0.0695,0.0167 -0.14279,5.9e-4 -0.19892,-0.0437 -0.0561,-0.0443 -0.0889,-0.11177 -0.0889,-0.18324 v -0.40404 l -0.5,5e-5 z"
       stroke="#0000ff"
       id="path148"
       style="font-weight:normal;font-family:sans-serif;fill:#000000;fill-opacity:0;stroke-width:1" /><path
       d="m 198.01572,95.068217 -6.06222,-3.49992 -0.24999,0.43302 0.34991,0.20202 c 0.0619,0.0357 0.10399,0.0979 0.11425,0.16858 0.0103,0.0707 -0.0125,0.14225 -0.0616,0.19409 l -2.25018,2.37161 c -0.63651,0.67086 -1.64996,0.81786 -2.45085,0.35548 l -3.33112,-1.92316 c -0.80088,-0.46238 -1.18033,-1.41354 -0.91763,-2.30021 l 0.9287,-3.13455 c 0.0203,-0.0685 0.0709,-0.12396 0.13726,-0.15044 0.0664,-0.0265 0.14123,-0.0211 0.20312,0.0146 l 0.34991,0.20202 0.24998,-0.433 -17.31971,-9.9992 -0.24999,0.43302 0.34991,0.20202 c 0.0619,0.0357 0.10399,0.0979 0.11425,0.16858 0.0103,0.0707 -0.0125,0.14225 -0.0616,0.19409 l -2.25018,2.37161 c -0.63651,0.67086 -1.64996,0.81786 -2.45085,0.35548 l -3.33112,-1.92316 c -0.80088,-0.46238 -1.18033,-1.41354 -0.91763,-2.30021 l 0.9287,-3.13455 c 0.0203,-0.0685 0.0709,-0.12396 0.13726,-0.15044 0.0664,-0.0265 0.14123,-0.0211 0.20312,0.0146 l 0.34991,0.20202 0.24997,-0.43299 -6.06223,-3.4999 6.06222,-3.49992 -0.24999,-0.43302 -0.34991,0.20202 c -0.0619,0.0357 -0.13674,0.0411 -0.20312,0.0146 -0.0664,-0.0265 -0.11696,-0.0819 -0.13726,-0.15044 l -0.9287,-3.13455 c -0.2627,-0.88668 0.11674,-1.83784 0.91763,-2.30021 l 3.33112,-1.92316 c 0.80088,-0.46238 1.81433,-0.31538 2.45085,0.35548 l 2.25018,2.37161 c 0.0492,0.0518 0.0719,0.12337 0.0616,0.19409 -0.0103,0.0707 -0.0524,0.13285 -0.11425,0.16858 l -0.34991,0.20202 0.25,0.43305 17.31972,-9.99921 -0.24999,-0.43302 -0.34991,0.20202 c -0.0619,0.0357 -0.13674,0.0411 -0.20312,0.0146 -0.0664,-0.0265 -0.11696,-0.0819 -0.13726,-0.15044 l -0.9287,-3.13455 c -0.2627,-0.88668 0.11674,-1.83784 0.91763,-2.30021 l 3.33112,-1.92316 c 0.80088,-0.46238 1.81433,-0.31538 2.45085,0.35548 l 2.25018,2.37161 c 0.0492,0.0518 0.0719,0.12337 0.0616,0.19409 -0.0103,0.0707 -0.0524,0.13285 -0.11425,0.16858 l -0.34991,0.20202 0.25,0.43304 6.06223,-3.49989 v 7 h 0.5 v -0.40404 c 0,-0.0715 0.0328,-0.13899 0.0889,-0.18324 0.0561,-0.0442 0.12942,-0.0603 0.19892,-0.0437 l 3.17896,0.76295 c 0.89924,0.21582 1.53325,1.02 1.53325,1.94477 v 3.84641 c 0,0.92478 -0.63401,1.72896 -1.53325,1.94477 l -3.17896,0.76295 c -0.0695,0.0167 -0.14279,5.9e-4 -0.19892,-0.0437 -0.0561,-0.0443 -0.0889,-0.11177 -0.0889,-0.18324 v -0.40404 l -0.5,6e-5 v 19.99783 h 0.5 v -0.40404 c 0,-0.0715 0.0328,-0.13899 0.0889,-0.18324 0.0561,-0.0443 0.12942,-0.0603 0.19892,-0.0437 l 3.17896,0.76295 c 0.89924,0.21582 1.53325,1.02 1.53325,1.94477 v 3.84641 c 0,0.92478 -0.63401,1.72896 -1.53325,1.94477 l -3.17896,0.76295 c -0.0695,0.0167 -0.14279,5.9e-4 -0.19892,-0.0437 -0.0561,-0.0443 -0.0889,-0.11177 -0.0889,-0.18324 v -0.40404 l -0.5,5e-5 z"
       stroke="#0000ff"
       id="path150"
       style="font-weight:normal;font-family:sans-serif;fill:#000000;fill-opacity:0;stroke-width:1" /><rect
       style="fill:none;stroke:#000000;stroke-width:0.0990469"
       id="rect1"
       width="214.9409"
       height="274.84048"
       x="0.84804744"
       y="3.4823554" /></g></svg>
